{
	"asset":{
		"generator":"Khronos glTF Blender I/O v4.0.44",
		"version":"2.0"
	},
	"scene":0,
	"scenes":[
		{
			"name":"Scene",
			"nodes":[
				5
			]
		}
	],
	"nodes":[
		{
			"mesh":0,
			"name":"Object_5"
		},
		{
			"children":[
				0
			],
			"name":"node_id36_1",
			"rotation":[
				0,
				-0.36515605449676514,
				0,
				0.9309463500976562
			],
			"scale":[
				0.01901957020163536,
				0.01901957020163536,
				0.01901957020163536
			],
			"translation":[
				-0.023399606347084045,
				-0.26469722390174866,
				0.2593856453895569
			]
		},
		{
			"children":[
				1
			],
			"name":"root_0"
		},
		{
			"children":[
				2
			],
			"name":"GLTF_SceneRootNode",
			"rotation":[
				0.70710688829422,
				0,
				0,
				0.7071066498756409
			]
		},
		{
			"children":[
				3
			],
			"name":"root"
		},
		{
			"children":[
				4
			],
			"name":"Sketchfab_model",
			"rotation":[
				-0.70710688829422,
				0,
				0,
				0.7071066498756409
			]
		}
	],
	"materials":[
		{
			"doubleSided":true,
			"name":"material_0",
			"pbrMetallicRoughness":{}
		}
	],
	"meshes":[
		{
			"name":"Object_0",
			"primitives":[
				{
					"attributes":{
						"POSITION":0,
						"NORMAL":1,
						"TEXCOORD_0":2,
						"TEXCOORD_1":3,
						"TEXCOORD_2":4
					},
					"indices":5,
					"material":0
				}
			]
		}
	],
	"accessors":[
		{
			"bufferView":0,
			"componentType":5126,
			"count":59551,
			"max":[
				3.368908405303955,
				26.150178909301758,
				2.71187686920166
			],
			"min":[
				-3.400710105895996,
				0,
				-1.491803526878357
			],
			"type":"VEC3"
		},
		{
			"bufferView":1,
			"componentType":5126,
			"count":59551,
			"type":"VEC3"
		},
		{
			"bufferView":2,
			"componentType":5126,
			"count":59551,
			"type":"VEC2"
		},
		{
			"bufferView":3,
			"componentType":5126,
			"count":59551,
			"type":"VEC2"
		},
		{
			"bufferView":4,
			"componentType":5126,
			"count":59551,
			"type":"VEC2"
		},
		{
			"bufferView":5,
			"componentType":5123,
			"count":299397,
			"type":"SCALAR"
		}
	],
	"bufferViews":[
		{
			"buffer":0,
			"byteLength":714612,
			"byteOffset":0,
			"target":34962
		},
		{
			"buffer":0,
			"byteLength":714612,
			"byteOffset":714612,
			"target":34962
		},
		{
			"buffer":0,
			"byteLength":476408,
			"byteOffset":1429224,
			"target":34962
		},
		{
			"buffer":0,
			"byteLength":476408,
			"byteOffset":1905632,
			"target":34962
		},
		{
			"buffer":0,
			"byteLength":476408,
			"byteOffset":2382040,
			"target":34962
		},
		{
			"buffer":0,
			"byteLength":598794,
			"byteOffset":2858448,
			"target":34963
		}
	],
	"buffers":[
		{
			"byteLength":3457244,
			"uri":"human_skeleton_simple.bin"
		}
	]
}
